<?xml version="1.0" standalone="no"?>
<!DOCTYPE svg PUBLIC "-//W3C//DTD SVG 20010904//EN"
 "http://www.w3.org/TR/2001/REC-SVG-20010904/DTD/svg10.dtd">
<svg version="1.0" xmlns="http://www.w3.org/2000/svg"
 width="512.000000pt" height="512.000000pt" viewBox="0 0 512.000000 512.000000"
 preserveAspectRatio="xMidYMid meet">

<g transform="translate(0.000000,512.000000) scale(0.100000,-0.100000)"
fill="#000000" stroke="none">
<path d="M2325 4830 c-151 -16 -352 -60 -510 -112 -851 -281 -1462 -1025
-1580 -1921 -29 -227 -17 -554 30 -777 75 -361 237 -705 474 -1010 84 -108
291 -316 401 -404 177 -140 407 -279 597 -360 44 -19 84 -32 87 -29 3 4 6 75
6 158 l0 152 -137 5 c-218 8 -357 51 -489 151 -96 73 -155 153 -199 273 -55
147 -116 224 -275 347 -35 27 -64 60 -79 90 -21 43 -22 53 -12 87 14 49 57 85
123 105 64 19 96 19 177 0 124 -30 262 -118 336 -215 80 -105 186 -208 239
-232 67 -30 225 -33 297 -5 46 17 47 19 76 102 l30 85 -41 11 c-98 25 -279 90
-347 124 -303 151 -495 391 -580 723 -58 228 -65 536 -16 724 30 113 87 240
152 336 l46 69 -16 64 c-19 84 -19 264 1 370 23 129 60 242 86 265 100 89 376
34 665 -132 l94 -55 120 20 c299 51 564 53 874 6 l181 -27 89 55 c206 125 366
186 506 195 94 5 123 -4 171 -55 75 -81 124 -445 83 -621 l-15 -64 44 -66 c78
-119 130 -239 163 -374 26 -107 26 -453 -1 -593 -66 -350 -210 -589 -451 -750
-121 -81 -299 -152 -460 -185 -33 -7 -65 -14 -72 -16 -9 -2 -5 -19 13 -58 50
-110 55 -161 61 -594 5 -353 7 -404 21 -410 19 -7 115 26 252 88 879 399 1428
1320 1360 2281 -34 471 -186 885 -464 1257 -88 118 -301 337 -412 424 -319
252 -712 422 -1114 483 -125 19 -459 27 -585 15z"/>
</g>
</svg>
