<svg width="216" height="40" viewBox="0 0 216 40" fill="none" xmlns="http://www.w3.org/2000/svg">
<path d="M2.59123 7.80734C2.83304 7.50082 3.15151 7.08591 3.40654 6.78937C4.17032 5.972 4.26942 5.86485 4.96449 5.26054C5.17063 5.10106 5.41509 4.90918 5.65426 4.72851C3.89018 6.13647 3.66554 7.6952 5.28427 8.65834C5.28163 8.65834 5.28163 8.65834 5.28163 8.66083C7.54521 9.94669 12.5058 9.66884 16.4198 8.02164C20.211 6.42679 21.6103 4.14539 19.7392 2.78976C18.0967 2.49944 16.1384 2.4658 14.0664 2.72746L13.851 2.39229L14.0294 1.83658C15.2477 1.73316 16.4053 1.75808 17.4043 1.91882C17.6461 1.95744 17.9646 2.02348 18.2024 2.07083C18.6623 2.17673 18.912 2.24028 19.212 2.33124C19.5185 2.41721 19.7802 2.50318 20.2361 2.66267C20.6827 2.82838 20.8756 2.90314 21.2337 3.07135C21.6348 3.24388 22.0244 3.43902 22.4005 3.65572C25.3817 5.42377 23.5277 8.64962 18.2672 10.86C13.0211 13.0629 6.33611 13.4093 3.34047 11.6624C3.33915 11.6599 3.33518 11.6574 3.32725 11.6549H3.33254C1.69663 10.6781 1.52484 9.26015 2.59123 7.80734V7.80734ZM16.2401 20.1675L16.1978 18.1814L14.7007 16.6115C9.75461 17.6681 4.89313 17.4413 2.18952 15.9399C2.18027 15.9299 2.1578 15.9199 2.14855 15.91C0.618354 15.0216 0.24043 13.8753 0.355393 12.6293C-0.00271022 14.4522 -0.0317813 15.11 0.0197538 16.67C0.0831817 17.6469 0.681782 18.5477 1.88559 19.2579L1.89484 19.2679C4.77685 20.9574 10.7814 21.3238 16.2401 20.1675ZM22.4838 22.4414C15.5028 25.0817 6.76557 25.2374 2.97047 22.794C3.38032 23.7384 3.93798 24.6196 4.62488 25.4081C8.10813 27.6509 16.1278 27.5076 22.5327 25.0841C26.2815 23.6675 28.6469 21.7823 29.2679 20.0155L29.4424 19.4835C29.856 18.1353 29.9339 17.0127 30 16.0134C29.9247 18.1826 27.2145 20.6497 22.4838 22.4414V22.4414ZM7.07346 27.5263C7.29282 27.7231 7.9826 28.5218 11.4777 29.404C12.4225 29.6008 14.8011 30.2326 19.1948 29.3143L19.2212 28.9367L18.8737 28.4234C14.7971 29.333 10.2686 29.0289 7.07346 27.5263V27.5263ZM17.1611 11.8157L20.873 14.4684C20.873 14.4684 21.6672 15.0079 20.9179 15.3867C20.1713 15.7617 18.2539 16.68 18.2539 16.68L16.3604 16.0134L15.4103 16.4121L17.0858 17.7839L17.099 19.9183L18.0835 19.5059L18.7363 17.7029C18.7363 17.7029 20.7409 16.9753 21.5363 16.7012C22.3358 16.4333 22.2288 17.3503 22.2288 17.3503L21.835 21.725L23.1432 21.1767L25.2971 15.2745C25.2971 15.2745 26.4388 14.7512 27.2422 14.2914C28.0443 13.8317 28.3192 13.0691 28.3192 13.0691C28.3192 13.0691 27.5369 12.7514 26.6357 13.0068C25.7345 13.2598 24.5597 13.7108 24.5597 13.7108L18.4654 11.2699L17.1611 11.8157V11.8157ZM9.30797 3.42272L11.8279 5.31537L12.5164 5.21818L11.1447 3.5199C11.1447 3.5199 10.8461 3.16854 11.2478 3.08506C11.6522 3.00033 12.6749 2.80346 12.6749 2.80346L13.444 3.38285L13.962 3.31058L13.3753 2.43091L13.6845 1.45531L13.1837 1.52384L12.5904 2.26644C12.5904 2.26644 11.5491 2.35865 11.1395 2.39104C10.7272 2.42095 10.9042 2.00354 10.9042 2.00354L11.6944 0L11.002 0.0959408L9.17848 2.59912C9.17848 2.59912 8.57063 2.70379 8.13059 2.82215C7.68924 2.93928 7.45667 3.26074 7.45667 3.26074C7.45667 3.26074 7.78042 3.50744 8.23631 3.49872C8.69616 3.49 9.30797 3.42272 9.30797 3.42272V3.42272ZM21.7623 27.7418L20.1317 26.9382L19.7564 27.0615L20.7224 27.8764C20.7224 27.8764 20.9285 28.0421 20.7118 28.1306C20.4951 28.2178 19.9427 28.4321 19.9427 28.4321L19.4868 28.2402L19.2159 28.3324L19.5952 28.7137L19.5582 29.2707L19.841 29.1785L20.0524 28.7262C20.0524 28.7262 20.6259 28.5654 20.8545 28.5081C21.0818 28.4496 21.0302 28.7012 21.0302 28.7012L20.8148 29.9036L21.1915 29.7803L21.9301 28.1904C21.9301 28.1904 22.2565 28.0695 22.4904 27.9586C22.7243 27.8477 22.8168 27.6434 22.8168 27.6434C22.8168 27.6434 22.6093 27.5362 22.353 27.5898C22.0953 27.6409 21.7623 27.7418 21.7623 27.7418Z" fill="white"/>
<g filter="url(#filter0_d_10_23)">
<path d="M46.944 12.28V31H41.696V12.28H36.288L36.8 8.344H52.064L51.552 12.28H46.944ZM58.007 17.24C58.327 16.1093 58.8603 15.2133 59.607 14.552C60.3537 13.8907 61.2177 13.56 62.199 13.56C63.2017 13.56 64.1083 13.7627 64.919 14.168L63.799 18.04C63.1377 17.848 62.5723 17.752 62.103 17.752C61.271 17.752 60.5137 18.0613 59.831 18.68C59.1697 19.2987 58.839 20.2053 58.839 21.4V31H53.943V18.936L53.591 14.2L57.303 13.72L57.879 17.24H58.007ZM73.4905 19.352C73.4905 18.648 73.3412 18.136 73.0425 17.816C72.7438 17.4747 72.1678 17.304 71.3145 17.304C70.4612 17.304 69.0532 17.6133 67.0905 18.232L65.7145 15.224C66.4398 14.8187 67.4425 14.4453 68.7225 14.104C70.0238 13.7413 71.2932 13.56 72.5305 13.56C73.7892 13.56 74.8345 13.7093 75.6665 14.008C76.5198 14.3067 77.1278 14.7547 77.4905 15.352C77.8745 15.928 78.1198 16.504 78.2265 17.08C78.3545 17.656 78.4185 18.3813 78.4185 19.256V25.272C78.4185 26.0613 78.4932 26.7013 78.6425 27.192C78.8132 27.6827 79.1652 28.216 79.6985 28.792L76.9145 31.384C76.4238 31.1493 75.9438 30.7973 75.4745 30.328C75.0265 29.8587 74.6958 29.4213 74.4825 29.016H74.3545C73.1172 30.5947 71.5492 31.384 69.6505 31.384C66.5785 31.384 65.0425 29.7947 65.0425 26.616C65.0425 24.9307 65.5225 23.672 66.4825 22.84C67.4638 22.008 68.8718 21.432 70.7065 21.112L73.4905 20.632V19.352ZM69.6825 26.104C69.6825 27.1493 70.2372 27.672 71.3465 27.672C72.1998 27.672 72.9252 27.3733 73.5225 26.776V23.768C72.1572 23.96 71.1758 24.2267 70.5785 24.568C69.9812 24.888 69.6825 25.4 69.6825 26.104ZM89.7608 13.688L94.2408 14.2L90.0168 31H84.2888L79.8407 14.168L84.5768 13.688L87.1048 26.648H87.2968L89.7608 13.688ZM102.985 13.56C105.118 13.56 106.686 14.1467 107.689 15.32C108.521 16.28 109.033 17.88 109.225 20.12C109.289 21.016 109.321 22.136 109.321 23.48L107.049 23.8H100.457C100.457 25.0587 100.691 26.008 101.161 26.648C101.63 27.2667 102.462 27.576 103.657 27.576C104.873 27.576 106.334 27.2667 108.041 26.648L109.033 29.656C107.006 30.808 104.894 31.384 102.697 31.384C97.7258 31.384 95.2405 28.44 95.2405 22.552C95.2405 19.7787 95.8805 17.592 97.1605 15.992C98.4618 14.3707 100.403 13.56 102.985 13.56ZM104.073 18.104C103.859 17.6133 103.379 17.368 102.633 17.368C101.886 17.368 101.353 17.6453 101.033 18.2C100.713 18.7333 100.531 19.544 100.489 20.632H104.393C104.393 19.416 104.286 18.5733 104.073 18.104ZM116.556 25.144C116.556 26.1893 116.62 26.9573 116.748 27.448C116.898 27.9387 117.25 28.5253 117.804 29.208L114.284 31.8C113.26 30.712 112.556 29.7627 112.172 28.952C111.81 28.12 111.628 26.8827 111.628 25.24V7.384L116.556 6.84V25.144ZM126.894 8.344H135.086C138.009 8.344 140.025 9.03733 141.134 10.424C142.094 11.6613 142.574 13.24 142.574 15.16C142.574 17.144 141.987 18.8827 140.814 20.376C140.195 21.1867 139.257 21.8373 137.998 22.328C136.761 22.7973 135.267 23.032 133.518 23.032H132.142V31H126.894V8.344ZM132.142 11.928V19.256H133.87C134.958 19.256 135.737 18.968 136.206 18.392C136.697 17.816 136.942 16.9093 136.942 15.672C136.942 14.4133 136.739 13.4747 136.334 12.856C135.929 12.2373 135.107 11.928 133.87 11.928H132.142ZM152.177 13.56C153.351 13.56 154.375 13.7413 155.249 14.104C156.124 14.4667 156.807 14.936 157.297 15.512C157.809 16.0667 158.215 16.76 158.513 17.592C159.004 18.9573 159.249 20.632 159.249 22.616C159.249 25.6667 158.396 27.9813 156.689 29.56C155.388 30.776 153.596 31.384 151.313 31.384C150.14 31.384 149.116 31.2027 148.241 30.84C147.367 30.4773 146.673 30.0187 146.161 29.464C145.671 28.888 145.265 28.184 144.945 27.352C144.455 26.0293 144.209 24.3547 144.209 22.328C144.209 20.4507 144.583 18.7973 145.329 17.368C146.631 14.8293 148.913 13.56 152.177 13.56ZM154.033 22.552C154.033 20.6107 153.884 19.2667 153.585 18.52C153.287 17.752 152.647 17.368 151.665 17.368C150.705 17.368 150.087 17.7307 149.809 18.456C149.553 19.1813 149.425 20.504 149.425 22.424C149.425 24.344 149.575 25.688 149.873 26.456C150.172 27.2027 150.812 27.576 151.793 27.576C152.775 27.576 153.393 27.224 153.649 26.52C153.905 25.7947 154.033 24.472 154.033 22.552ZM165.82 17.24C166.14 16.1093 166.673 15.2133 167.42 14.552C168.166 13.8907 169.03 13.56 170.012 13.56C171.014 13.56 171.921 13.7627 172.732 14.168L171.612 18.04C170.95 17.848 170.385 17.752 169.916 17.752C169.084 17.752 168.326 18.0613 167.644 18.68C166.982 19.2987 166.652 20.2053 166.652 21.4V31H161.756V18.936L161.404 14.2L165.116 13.72L165.692 17.24H165.82ZM179.639 13.816H183.959L183.383 17.368H179.639V24.696C179.639 25.784 179.788 26.5413 180.087 26.968C180.386 27.3947 180.898 27.608 181.623 27.608C181.922 27.608 182.53 27.5013 183.447 27.288L184.311 30.136C183.906 30.456 183.244 30.744 182.327 31C181.431 31.256 180.61 31.384 179.863 31.384C177.751 31.384 176.364 30.8507 175.703 29.784C175.063 28.696 174.743 26.9253 174.743 24.472V17.368H172.279L172.727 14.168L174.839 13.88L175.031 10.68L179.639 9.304V13.816ZM193.334 19.352C193.334 18.648 193.185 18.136 192.886 17.816C192.588 17.4747 192.012 17.304 191.158 17.304C190.305 17.304 188.897 17.6133 186.934 18.232L185.558 15.224C186.284 14.8187 187.286 14.4453 188.566 14.104C189.868 13.7413 191.137 13.56 192.374 13.56C193.633 13.56 194.678 13.7093 195.51 14.008C196.364 14.3067 196.972 14.7547 197.334 15.352C197.718 15.928 197.964 16.504 198.07 17.08C198.198 17.656 198.262 18.3813 198.262 19.256V25.272C198.262 26.0613 198.337 26.7013 198.486 27.192C198.657 27.6827 199.009 28.216 199.542 28.792L196.758 31.384C196.268 31.1493 195.788 30.7973 195.318 30.328C194.87 29.8587 194.54 29.4213 194.326 29.016H194.198C192.961 30.5947 191.393 31.384 189.494 31.384C186.422 31.384 184.886 29.7947 184.886 26.616C184.886 24.9307 185.366 23.672 186.326 22.84C187.308 22.008 188.716 21.432 190.55 21.112L193.334 20.632V19.352ZM189.526 26.104C189.526 27.1493 190.081 27.672 191.19 27.672C192.044 27.672 192.769 27.3733 193.366 26.776V23.768C192.001 23.96 191.02 24.2267 190.422 24.568C189.825 24.888 189.526 25.4 189.526 26.104ZM206.213 25.144C206.213 26.1893 206.277 26.9573 206.405 27.448C206.554 27.9387 206.906 28.5253 207.461 29.208L203.941 31.8C202.917 30.712 202.213 29.7627 201.829 28.952C201.466 28.12 201.285 26.8827 201.285 25.24V7.384L206.213 6.84V25.144Z" fill="white"/>
</g>
<defs>
<filter id="filter0_d_10_23" x="32.288" y="6.84" width="179.172" height="32.96" filterUnits="userSpaceOnUse" color-interpolation-filters="sRGB">
<feFlood flood-opacity="0" result="BackgroundImageFix"/>
<feColorMatrix in="SourceAlpha" type="matrix" values="0 0 0 0 0 0 0 0 0 0 0 0 0 0 0 0 0 0 127 0" result="hardAlpha"/>
<feOffset dy="4"/>
<feGaussianBlur stdDeviation="2"/>
<feComposite in2="hardAlpha" operator="out"/>
<feColorMatrix type="matrix" values="0 0 0 0 0 0 0 0 0 0 0 0 0 0 0 0 0 0 0.25 0"/>
<feBlend mode="normal" in2="BackgroundImageFix" result="effect1_dropShadow_10_23"/>
<feBlend mode="normal" in="SourceGraphic" in2="effect1_dropShadow_10_23" result="shape"/>
</filter>
</defs>
</svg>
