<?xml version="1.0" standalone="no"?>
<!DOCTYPE svg PUBLIC "-//W3C//DTD SVG 20010904//EN"
 "http://www.w3.org/TR/2001/REC-SVG-20010904/DTD/svg10.dtd">
<svg version="1.0" xmlns="http://www.w3.org/2000/svg"
 width="225.000000pt" height="225.000000pt" viewBox="0 0 225.000000 225.000000"
 preserveAspectRatio="xMidYMid meet">

<g transform="translate(0.000000,225.000000) scale(0.100000,-0.100000)"
fill="#000000" stroke="none">
<path d="M735 1983 c-219 -31 -387 -176 -452 -388 -16 -54 -18 -100 -18 -470
0 -370 2 -416 18 -470 57 -186 186 -315 372 -372 54 -16 100 -18 470 -18 370
0 416 2 470 18 186 57 315 186 372 372 16 54 18 100 18 470 0 370 -2 416 -18
470 -57 183 -183 311 -367 371 -48 16 -101 18 -445 20 -214 1 -403 0 -420 -3z
m797 -144 c154 -32 274 -152 307 -307 15 -72 15 -742 0 -814 -33 -155 -153
-275 -307 -307 -72 -15 -743 -15 -814 0 -155 33 -275 153 -307 307 -15 72 -15
743 0 814 32 151 146 268 294 304 67 16 752 19 827 3z"/>
<path d="M1534 1671 c-61 -37 -65 -115 -8 -160 62 -48 154 -4 154 74 0 49 -15
74 -55 91 -44 18 -54 18 -91 -5z"/>
<path d="M1017 1559 c-100 -24 -222 -117 -277 -214 -156 -272 11 -615 324
-667 263 -44 515 172 516 442 1 201 -139 384 -334 436 -57 15 -171 17 -229 3z
m240 -153 c241 -113 243 -443 3 -567 -37 -19 -61 -23 -130 -23 -72 0 -92 4
-135 26 -106 56 -175 164 -175 275 0 125 63 228 172 282 82 41 185 44 265 7z"/>
</g>
</svg>
