<?xml version="1.0" standalone="no"?>
<!DOCTYPE svg PUBLIC "-//W3C//DTD SVG 20010904//EN"
 "http://www.w3.org/TR/2001/REC-SVG-20010904/DTD/svg10.dtd">
<svg version="1.0" xmlns="http://www.w3.org/2000/svg"
 width="225.000000pt" height="225.000000pt" viewBox="0 0 225.000000 225.000000"
 preserveAspectRatio="xMidYMid meet">

<g transform="translate(0.000000,225.000000) scale(0.100000,-0.100000)"
fill="#000000" stroke="none">
<path d="M641 1929 c-308 -14 -403 -37 -490 -115 -95 -85 -123 -180 -143 -487
-9 -148 -9 -233 0 -395 19 -313 46 -409 143 -496 89 -80 170 -98 518 -116 258
-13 625 -13 901 0 353 17 440 36 529 116 95 85 123 181 142 490 10 144 10 232
0 388 -19 316 -41 397 -136 492 -59 60 -124 88 -241 103 -201 28 -844 38
-1223 20z m1129 -189 c58 -6 122 -15 143 -21 48 -13 103 -68 116 -116 49 -174
49 -782 0 -956 -13 -48 -69 -103 -116 -116 -177 -47 -1255 -54 -1523 -10 -125
20 -162 63 -187 220 -24 148 -24 620 0 768 33 201 67 221 418 241 198 11 1012
4 1149 -10z"/>
<path d="M900 1125 c0 -185 3 -334 8 -332 4 3 133 78 287 167 154 90 281 164
283 165 2 2 -111 68 -250 148 -139 79 -270 155 -290 167 l-38 22 0 -337z"/>
</g>
</svg>
